<?xml version="1.0" standalone="no"?>
<!DOCTYPE svg PUBLIC "-//W3C//DTD SVG 20010904//EN"
 "http://www.w3.org/TR/2001/REC-SVG-20010904/DTD/svg10.dtd">
<svg version="1.0" xmlns="http://www.w3.org/2000/svg"
 width="513.000000pt" height="513.000000pt" viewBox="0 0 513.000000 513.000000"
 preserveAspectRatio="xMidYMid meet">
<metadata>
Created by potrace 1.14, written by Peter Selinger 2001-2017
</metadata>
<g transform="translate(0.000000,513.000000) scale(0.100000,-0.100000)"
fill="#000000" stroke="none">
<path d="M2536 4445 c-88 -23 -193 -83 -262 -150 -113 -111 -157 -251 -119
-381 20 -71 36 -98 137 -234 92 -123 171 -276 195 -375 9 -38 20 -87 25 -107
5 -22 15 -38 23 -38 9 0 74 152 186 433 l173 432 4 103 c4 113 -8 168 -54 234
-54 78 -186 113 -308 83z m79 -229 c96 -40 81 -217 -23 -270 -76 -39 -147 -23
-176 39 -43 91 6 196 109 233 41 14 51 14 90 -2z"/>
<path d="M3028 4143 c-4 -97 -9 -129 -31 -180 l-25 -62 51 -15 c73 -21 242
-106 302 -151 62 -47 118 -99 156 -147 l29 -36 -41 -49 c-217 -254 -862 -873
-910 -873 -6 0 -108 96 -227 213 -225 220 -312 293 -397 333 -63 30 -80 30
-110 -1 -34 -33 -35 -123 -4 -175 90 -147 644 -686 727 -707 78 -19 254 136
702 620 96 104 213 222 259 263 99 87 191 150 200 137 3 -5 20 -29 37 -53 107
-154 184 -427 184 -656 0 -180 -50 -423 -118 -567 -52 -110 -101 -181 -207
-297 -93 -103 -158 -184 -193 -242 -16 -25 -33 -39 -54 -43 -17 -4 -109 -38
-204 -76 -298 -118 -430 -149 -629 -149 -192 0 -350 37 -531 126 -344 168
-584 429 -702 766 -67 190 -80 357 -48 650 9 81 16 187 16 235 0 86 1 89 33
120 17 17 48 57 67 88 111 182 173 265 266 355 104 101 211 177 332 237 72 36
74 38 67 67 -24 117 -11 237 36 327 11 23 19 43 16 45 -9 10 -163 -51 -292
-116 -169 -84 -296 -173 -428 -299 -152 -146 -254 -292 -312 -445 -14 -37 -36
-82 -50 -100 -113 -148 -179 -465 -155 -751 54 -668 418 -1232 966 -1496 479
-231 1080 -236 1527 -13 116 58 233 141 289 205 29 33 80 75 115 96 228 133
456 529 532 923 45 238 49 447 10 642 -25 126 -59 216 -164 439 -47 100 -98
211 -112 247 l-26 65 49 41 c101 84 192 178 219 228 20 37 29 69 32 117 5 87
-2 96 -74 95 -94 -1 -139 -28 -276 -164 -66 -66 -125 -120 -131 -120 -5 0 -86
51 -180 113 -188 125 -303 193 -405 239 -53 24 -167 68 -176 68 -2 0 -5 -53
-7 -117z"/>
<path d="M1382 2719 c-83 -42 -124 -134 -87 -197 73 -123 285 -71 285 70 0 32
-38 104 -64 121 -42 28 -87 30 -134 6z"/>
<path d="M3633 2709 c-41 -12 -83 -80 -83 -134 0 -31 7 -45 43 -80 57 -57 99
-66 164 -34 37 19 53 35 72 72 30 61 23 107 -24 154 -29 29 -39 33 -86 32 -30
0 -68 -5 -86 -10z"/>
<path d="M2456 1553 c-45 -130 8 -246 112 -246 53 0 81 18 103 66 20 44 26
160 10 186 -7 11 -142 40 -193 41 -10 0 -22 -16 -32 -47z"/>
</g>
</svg>
